<svg xmlns="http://www.w3.org/2000/svg" viewBox="0 0 64 64" role="img" aria-label="ICCCMLA">
  <defs>
    <linearGradient id="icccmlaG" x1="0" y1="0" x2="1" y2="1">
      <stop offset="0" stop-color="#0086D1"/>
      <stop offset="1" stop-color="#003E63"/>
    </linearGradient>
  </defs>
  <circle cx="32" cy="32" r="31" fill="url(#icccmlaG)"/>
  <circle cx="32" cy="32" r="30" fill="none" stroke="#ffffff" stroke-opacity="0.16"/>
  <g stroke="#CDE6F7" stroke-opacity="0.55" stroke-width="1">
    <line x1="20" y1="24" x2="32" y2="18"/><line x1="20" y1="24" x2="32" y2="32"/><line x1="20" y1="24" x2="32" y2="46"/>
    <line x1="20" y1="40" x2="32" y2="18"/><line x1="20" y1="40" x2="32" y2="32"/><line x1="20" y1="40" x2="32" y2="46"/>
    <line x1="32" y1="18" x2="44" y2="24"/><line x1="32" y1="18" x2="44" y2="40"/>
    <line x1="32" y1="32" x2="44" y2="24"/><line x1="32" y1="32" x2="44" y2="40"/>
    <line x1="32" y1="46" x2="44" y2="24"/><line x1="32" y1="46" x2="44" y2="40"/>
  </g>
  <g fill="#ffffff">
    <circle cx="20" cy="24" r="2.6"/><circle cx="20" cy="40" r="2.6"/>
    <circle cx="32" cy="18" r="2.6"/><circle cx="32" cy="46" r="2.6"/>
    <circle cx="44" cy="24" r="2.6"/><circle cx="44" cy="40" r="2.6"/>
  </g>
  <circle cx="32" cy="32" r="3.6" fill="#E3AD31"/>
</svg>
